General

Format                         : MPEG-4
Format profile                 : Base Media
Codec ID                       : isom
File size                      : 216 MiB
Duration                       : 4mn 52s
Overall bit rate mode          : Variable
Overall bit rate               : 6 196 Kbps
Encoded date                   : UTC 2012-10-22 01:33:49
Tagged date                    : UTC 2012-10-22 01:33:49

Video
ID                             : 1
Format                         : AVC
Format/Info                    : Advanced Video Codec
Format profile                 : High@L3.0
Format settings, CABAC         : Yes
Format settings, ReFrames      : 2 frames
Codec ID                       : avc1
Codec ID/Info                  : Advanced Video Coding
Duration                       : 4mn 52s
Bit rate                       : 6 007 Kbps
Maximum bit rate               : 12.1 Mbps
Width                          : 720 pixels
Height                         : 480 pixels
Display aspect ratio           : 16:9
Original display aspect ratio  : 16:9
Frame rate mode                : Constant
Frame rate                     : 23.976 fps
Standard                       : NTSC
Color space                    : YUV
Chroma subsampling             : 4:2:0
Bit depth                      : 8 bits
Scan type                      : Progressive
Bits/(Pixel*Frame)             : 0.725
Stream size                    : 210 MiB (97%)


Audio
ID                             : 2
Format                         : AAC
Format/Info                    : Advanced Audio Codec
Format profile                 : LC
Codec ID                       : 40
Duration                       : 4mn 52s
Bit rate mode                  : Variable
Bit rate                       : 186 Kbps
Maximum bit rate               : 227 Kbps
Channel(s)                     : 2 channels
Channel positions              : Front: L R
Sampling rate                  : 44.1 KHz
Compression mode               : Lossy
Stream size                    : 6.50 MiB (3%)